<svg width="450" height="450" viewBox="0 0 450 450" fill="none" xmlns="http://www.w3.org/2000/svg">
<path fill-rule="evenodd" clip-rule="evenodd" d="M167.908 13.0957V26.1915H153.973H140.037V43.1083V60.0241L118.289 60.3268C97.7622 60.612 96.3458 60.7487 93.0646 62.7645C87.4042 66.2422 84.547 69.5665 81.8097 75.8583L79.2269 81.7941V140.35V198.905L72.2591 204.055C68.4264 206.887 51.0389 219.511 33.6193 232.107C16.1997 244.704 1.29279 255.582 0.49381 256.28C-0.80094 257.41 0.0343553 258.275 8.09508 264.159C13.0748 267.793 31.7823 281.544 49.6664 294.715L82.183 318.664L82.433 325.211L82.6821 331.759H86.0225H89.362V325.063V318.365L125.996 291.596L162.63 264.825H187.875H213.12L214.691 269.918C217.262 278.25 222.865 283.47 232.741 286.733C233.58 287.009 233.76 294.692 233.585 322.76L233.364 358.435L217.739 358.92C203.107 359.374 201.819 359.567 197.469 361.937C186.6 367.861 179.31 379.916 178.31 393.62L177.799 400.633H174.12C170.48 400.633 170.442 400.668 170.442 404.028C170.442 407.388 170.48 407.423 174.12 407.423H177.799L178.299 413.971C178.951 422.527 180.718 428.153 184.605 434.056C188.624 440.16 193.561 444.486 199.764 447.339C204.528 449.529 205.454 449.593 237.56 449.908C272.82 450.254 278.209 449.784 285.715 445.706C295.274 440.512 302.825 427.865 303.681 415.616L304.118 409.363H337.257C373.035 409.363 374.34 409.202 380.199 404.07C381.742 402.717 384.112 399.317 385.464 396.514L387.923 391.417L388.181 354.798L388.438 318.178H383.746H379.055L379.053 352.858C379.052 391.542 378.98 392.078 373.229 396.491C370.367 398.687 370.266 398.693 337.239 398.693H304.118L303.685 392.495C302.812 380.004 295.721 368.38 285.416 362.549L279.86 359.406L260.624 359.097L241.387 358.79V322.111V285.432L244.087 284.148C254.654 279.12 259.66 263.224 254.604 250.753C250.716 241.163 242.881 236.056 233.396 236.931C224.647 237.737 218.21 243.13 214.798 252.509L213.493 256.095L191.335 256.084L169.175 256.073L129.057 226.886C106.993 210.834 88.6601 197.197 88.3189 196.583C87.9777 195.969 87.6931 171.418 87.6855 142.025C87.6711 82.9601 87.7412 82.0735 92.883 75.9806C97.568 70.4289 101.409 69.7024 122.09 70.46L140.037 71.1177V110.253V149.389H208.013H275.987L276.213 123.44L276.438 97.4906L285.517 97.2151L294.596 96.9396V83.2492V69.5578L329.858 70.0671C367.774 70.6142 368.972 70.7743 373.876 75.9534C378.496 80.8308 379.016 84.0049 379.036 107.434L379.055 129.017H383.767H388.48L388.201 105.979C387.93 83.4936 387.87 82.8097 385.718 77.5394C383.089 71.1021 378.687 65.9376 373.288 62.9595C369.742 61.0029 367.5 60.708 351.184 60.0503C341.196 59.6487 324.379 59.2869 313.811 59.2461L294.596 59.1734V29.5867V0H231.252H167.908V13.0957ZM287.638 48.7453L287.858 89.2451H282.359H276.86V57.7183V26.1915H225.763H174.665V17.623C174.665 12.9095 174.921 8.7596 175.234 8.40068C175.547 8.04079 200.917 7.85938 231.61 7.99616L287.417 8.24547L287.638 48.7453ZM268.414 88.275V140.658H208.449H148.483V88.275V35.892H208.449H268.414V88.275ZM161.996 62.5686V66.9338H206.337H250.678V62.5686V58.2033H206.337H161.996V62.5686ZM161.996 85.8499V90.2151H206.337H250.678V85.8499V81.4846H206.337H161.996V85.8499ZM363.852 131.986C341.151 134.811 325.316 141.435 320.168 150.26C318.332 153.406 318.245 154.406 318.245 172.377C318.245 191.801 318.669 194.674 322.017 197.865C323.248 199.037 323.224 199.335 321.756 201.189C318.526 205.272 318.245 207.162 318.245 224.784C318.245 239.994 318.444 242.552 319.879 245.785C321.493 249.423 321.494 249.502 319.881 252.537C318.42 255.29 318.251 257.543 318.248 274.22C318.246 284.456 318.58 293.841 318.99 295.076C320.138 298.535 324.101 302.597 329.221 305.563C357.823 322.128 427.964 319.28 445.219 300.853C449.728 296.038 450 294.556 450 274.779C450 258.767 449.802 256.059 448.402 252.904C446.834 249.372 446.834 249.236 448.402 245.704C449.787 242.583 450 239.869 450 225.301C450 208.022 449.368 203.819 446.337 200.931C445.063 199.717 445.122 199.369 447.052 196.734C448.209 195.155 449.37 192.884 449.631 191.689C449.892 190.494 449.986 181.172 449.841 170.975C449.601 154.017 449.428 152.201 447.828 149.699C443.435 142.832 431.109 136.794 414.527 133.387C405.069 131.443 374.908 130.609 363.852 131.986ZM348.227 210.859C359.987 213.538 369.763 214.522 384.545 214.512C405.233 214.499 424.653 211.12 435.387 205.666L439.302 203.678L441.273 205.804C443.731 208.457 443.744 209.637 441.343 212.164C427.804 226.411 367.772 230.221 337.959 218.727C326.783 214.418 323.192 210.414 326.68 206.15L328.517 203.905L334.994 206.612C338.556 208.101 344.511 210.012 348.227 210.859ZM109.495 225.216C122.809 234.909 138.186 246.09 143.665 250.065C149.143 254.039 153.514 257.647 153.377 258.083C153.241 258.519 137.938 269.964 119.373 283.518L85.6162 308.16L76.2396 301.287C71.0826 297.505 55.5735 286.144 41.7746 276.039C21.7909 261.404 16.9058 257.426 17.7631 256.484C18.7816 255.364 84.3983 207.679 85.0022 207.62C85.1585 207.604 96.1803 215.523 109.495 225.216ZM442.872 241.157C441.795 246.12 428.336 252.589 412.649 255.683C402.196 257.746 376.7 258.56 365.715 257.183C348.982 255.086 335.93 251.064 329.273 245.954L325.424 242.999L325.185 232.086C325.054 226.084 325.101 221.173 325.291 221.173C325.48 221.173 327.679 222.21 330.175 223.477C335.341 226.098 345.91 229.216 355.829 231.047C366.693 233.051 403.462 232.731 414.95 230.532C424.793 228.647 438.367 224.102 441.152 221.758C442.78 220.388 442.827 220.585 443.068 229.735C443.204 234.896 443.116 240.036 442.872 241.157ZM336.312 258.184C347.426 262.921 360.147 264.994 380.322 265.358C406.914 265.838 423.198 262.929 440.011 254.696C442.156 253.645 443.747 257.564 442.373 260.514C440.05 265.5 427.182 271.192 411.522 274.159C398.545 276.617 369.644 276.634 356.673 274.189C340.104 271.065 326.467 264.607 325.315 259.337C324.701 256.528 326.447 253.822 328.304 254.705C329.043 255.057 332.646 256.622 336.312 258.184ZM342.819 278.814C356.421 282.894 363.101 283.672 384.545 283.671C400.197 283.671 406.642 283.286 412.838 281.979C424.227 279.576 432.77 276.8 438.387 273.677L443.243 270.977V281.881V292.784L440.498 295.449C432.058 303.643 410.397 308.756 384.122 308.756C357.847 308.756 336.186 303.643 327.746 295.449L325.001 292.784V281.886V270.989L329.939 273.711C332.654 275.208 338.45 277.505 342.819 278.814ZM82.6053 360.861V375.411H85.9836H89.362V360.861V346.31H85.9836H82.6053V360.861ZM281.209 370.221C286.218 372.881 291.206 378.61 293.817 384.702C295.697 389.089 295.863 390.62 295.863 403.543C295.863 412.785 295.477 418.861 294.738 421.26C292.987 426.946 287.742 433.81 282.706 437.01L278.127 439.92L242.767 440.203C203.379 440.519 202.756 440.437 195.469 434.047C192.808 431.713 190.825 428.749 188.866 424.18C186.094 417.713 186.067 417.518 186.097 404.048C186.134 387.417 187.464 382.98 194.683 375.402C202.022 367.698 201.908 367.716 242.232 367.941C276.124 368.129 277.412 368.205 281.209 370.221ZM77.0555 382.571C71.8343 385.364 67.7701 390.785 66.1114 397.172C64.548 403.191 64.5565 404.893 66.1832 411.185C68.7997 421.303 76.4879 427.794 85.8552 427.794C92.0266 427.794 96.3104 425.97 100.205 421.682C111.025 409.77 108.287 389.726 94.8577 382.542C89.1829 379.507 82.7649 379.518 77.0555 382.571ZM92.628 389.419C97.5756 392.376 100.342 397.828 100.342 404.625C100.342 414.772 90.9202 423.01 82.5909 420.144C75.2633 417.622 71.0193 410.394 71.8562 401.862C72.9517 390.7 83.8502 384.172 92.628 389.419ZM107.943 404.028V407.423H118.5H129.057V404.028V400.633H118.5H107.943V404.028ZM139.193 404.028V407.423H149.75H160.307V404.028V400.633H149.75H139.193V404.028ZM209.73 404.149C208.9 405.104 208.459 406.915 208.614 408.736C208.934 412.489 211.574 414.18 217.144 414.199C220.328 414.211 221.638 413.704 223.267 411.832C225.683 409.058 225.829 407.687 224.025 404.729C222.883 402.856 221.947 402.573 216.907 402.573C212.675 402.573 210.731 403 209.73 404.149ZM233.378 404.149C232.548 405.104 232.107 406.915 232.262 408.736C232.583 412.489 235.223 414.18 240.792 414.199C243.977 414.211 245.286 413.704 246.915 411.832C249.332 409.058 249.478 407.687 247.674 404.729C246.532 402.856 245.595 402.573 240.555 402.573C236.323 402.573 234.38 403 233.378 404.149ZM258.716 404.149C257.886 405.104 257.445 406.915 257.6 408.736C257.92 412.489 260.56 414.18 266.129 414.199C269.314 414.211 270.624 413.704 272.253 411.832C274.669 409.058 274.815 407.687 273.011 404.729C271.869 402.856 270.933 402.573 265.893 402.573C261.661 402.573 259.717 403 258.716 404.149Z" fill="#035A9A" fill-opacity="0.95"/>
</svg>
