<svg width="207" height="211" viewBox="0 0 207 211" fill="none" xmlns="http://www.w3.org/2000/svg">
<path fill-rule="evenodd" clip-rule="evenodd" d="M7.89408 1.83617C1.39017 6.53912 -2.22244 46.5166 1.49831 72.6065C7.5217 114.841 30.239 155.186 64.3062 184.15C75.4328 193.61 100.824 211 103.509 211C106.358 211 132.499 192.938 143.942 183.065C177.256 154.317 199.577 114.277 205.52 72.6065C208.279 53.2611 207.089 26.1349 202.71 8.54128C201.808 4.91864 200.649 2.93431 198.624 1.54452C195.461 -0.626436 196.467 -0.840249 181.87 5.1137C160.102 13.9926 133.758 13.2611 111.952 3.17438C108.178 1.42824 104.379 0 103.509 0C102.64 0 98.8204 1.43855 95.0231 3.19595C81.7949 9.31964 74.6686 10.7844 58.1094 10.7844C41.1492 10.7844 35.3942 9.67318 21.6191 3.73986C16.8435 1.68237 12.3739 0 11.6852 0C10.9976 0 9.29077 0.826182 7.89408 1.83617ZM123.262 21.2144C140.815 25.9736 164.546 25.1709 182.4 19.2141C186.131 17.9697 189.493 17.2514 189.871 17.619C191.242 18.9487 192.773 35.4677 192.757 48.7644C192.705 93.488 174.677 134.644 140.948 167.035C132.439 175.207 110.637 192.13 104.559 195.281C102.362 196.42 82.255 181.768 68.3116 168.867C53.6837 155.332 44.4629 143.88 35.7247 128.396C20.7173 101.8 14.298 77.8224 14.2582 48.2102C14.2409 34.7156 15.7294 19.0463 17.1638 17.619C17.5331 17.2514 20.8876 17.9697 24.6186 19.2141C47.4705 26.8383 75.1186 25.8611 97.9889 16.6212L103.509 14.3902L108.979 16.6071C111.987 17.8272 118.415 19.8996 123.262 21.2144ZM97.8981 26.9302C95.9342 27.731 90.425 29.4303 85.6554 30.7047C73.9218 33.8416 51.4943 34.6781 38.6456 32.4584C27.9272 30.6072 28.018 30.6072 26.0449 32.4199C22.6465 35.5446 24.4288 67.5397 29.0086 85.5975C36.6205 115.61 55.6027 145.842 79.8259 166.533C89.5445 174.836 101.19 182.867 103.509 182.867C106.543 182.867 120.091 172.937 131.565 162.301C164.793 131.506 182.496 91.5449 182.558 47.1899C182.573 36.337 182.282 33.6231 180.974 32.4199C179 30.6063 179.088 30.6063 168.373 32.464C150.609 35.5437 124.8 33.1176 108.741 26.8598C104.008 25.0152 102.568 25.0246 97.8981 26.9302ZM111.672 36.9391C120.381 39.6567 132.545 41.8877 142.788 42.6464C150.055 43.1847 168.141 41.9768 171.722 40.7136C173.187 40.1969 173.395 41.0709 173.395 47.7629C173.395 92.9919 150.769 137.633 113.446 166.046C105.255 172.281 103.434 173.289 102.071 172.338C58.4777 141.926 33.6241 96.6915 33.6241 47.7629C33.6241 41.0484 33.8281 40.196 35.3075 40.7174C40.0362 42.3857 58.0809 43.2053 68.1423 42.2094C78.3251 41.2022 96.4881 37.4314 99.8416 35.629C102.272 34.3236 103.846 34.498 111.672 36.9391Z" fill="white"/>
<path d="M89.5087 100.465L97.4659 75H105L92.4528 115H86.5588L74 75H81.5341L89.5087 100.465Z" fill="white"/>
<path d="M117.003 90.5353L125.22 116H133L120.049 76H113.957L101 116H108.78L117.003 90.5353Z" fill="white"/>
</svg>
