<svg width="712" height="590" viewBox="0 0 712 590" fill="none" xmlns="http://www.w3.org/2000/svg">
<path fill-rule="evenodd" clip-rule="evenodd" d="M77.6422 508.158L155.286 590L232.932 508.135L310.58 426.268L291.41 406.098L272.241 385.928L220.065 440.947C191.367 471.209 167.472 495.487 166.964 494.898C165.461 493.16 160.502 465.905 157.974 445.487C155.116 422.405 155.794 379.167 159.404 354.349C180.008 212.7 278.607 99.5176 410.147 66.5207C437.461 59.6699 454.023 57.7906 486.747 57.8332C527.422 57.886 555.845 62.6857 591.899 75.5885C612.036 82.7945 648.079 101.484 665.991 114.006L680.89 124.423L695.829 102.84C704.044 90.9711 711.284 80.529 711.917 79.6393C712.665 78.5851 708.317 74.6576 699.489 68.4132C602.709 -0.0399886 479.893 -18.3767 369.061 19.0808C294.144 44.3989 227.97 93.4025 181.271 158.141C141.324 213.52 117.428 272.249 105.547 344.255C102.781 361.018 102.423 368.27 102.39 408.295L102.352 453.433L70.3039 419.671L38.257 385.907L19.1278 406.112L0 426.316L77.6422 508.158Z" fill="white"/>
</svg>
