<svg width="450" height="450" viewBox="0 0 450 450" fill="none" xmlns="http://www.w3.org/2000/svg">
<path fill-rule="evenodd" clip-rule="evenodd" d="M209.828 2.48092C200.802 5.64648 187.143 20.1505 184.322 29.5632C182.263 36.4374 181.859 36.7179 169.295 39.9763C162.193 41.8182 148.291 47.4365 138.4 52.4617L120.417 61.5993L114.645 58.2283C111.471 56.374 104.225 54.4357 98.5456 53.9212C72.5615 51.5649 51.3545 73.07 54.0359 99.0554C54.5969 104.492 56.5513 111.498 58.3788 114.628L61.6998 120.316L52.5621 138.298C47.5368 148.189 41.9184 162.091 40.0765 169.193C36.7984 181.832 36.5751 182.15 29.4882 184.265C19.5751 187.225 4.4349 202.172 1.88741 211.511C-2.86636 228.942 1.40506 244.319 14.189 255.813C18.9141 260.061 25.9171 264.477 29.7526 265.626C36.5197 267.654 36.827 268.1 40.0765 280.627C41.9184 287.728 47.5046 301.61 52.4889 311.476L61.5516 329.416L57.532 337.387C47.4778 357.323 57.6106 383.105 79.4162 393.065C89.3256 397.59 105.23 397.436 114.465 392.725L121.68 389.045L137.171 397.006C152.438 404.85 161.402 408.369 176.332 412.372C180.989 413.621 183.924 415.447 183.924 417.09C183.924 421.671 190.477 432.761 196.719 438.744C204.756 446.449 213.967 450 225.906 450C243.729 450 257.587 440.712 264.443 424.166L268.441 414.52L283.796 409.771C292.241 407.16 306.062 401.398 314.512 396.968L329.874 388.913L336.843 392.402C346.699 397.336 354.39 398.438 364.033 396.296C383.341 392.009 396.466 375.593 396.497 355.694C396.507 347.784 395.403 342.285 392.766 337.114L389.018 329.77L397.074 314.408C401.504 305.958 407.244 292.213 409.832 283.862L414.536 268.677L424.924 263.816C445.11 254.371 454.224 233.833 448.138 211.511C445.59 202.172 430.45 187.225 420.537 184.265C413.45 182.15 413.227 181.832 409.949 169.193C408.107 162.091 402.488 148.189 397.463 138.298L388.325 120.316L391.646 114.628C399.453 101.262 397.009 80.2961 386.139 67.3784C375.15 54.3196 352.748 49.7392 337.492 57.4316L329.52 61.451L313.442 53.3496C304.599 48.8942 290.711 43.267 282.579 40.8446C268.079 36.5267 267.752 36.3034 265.646 29.2953C262.691 19.4735 247.686 4.31737 238.411 1.78779C228.859 -0.816832 218.521 -0.566731 209.828 2.48092ZM239.322 18.1301C252.217 26.9068 256.247 38.8098 250.986 52.5832C246.672 63.8842 238.057 69.49 225.013 69.49C211.968 69.49 203.354 63.8842 199.039 52.5832C191.786 33.5934 204.94 14.1106 225.013 14.1106C230.786 14.1106 235.265 15.3682 239.322 18.1301ZM184.599 58.7482C191.324 75.5514 211.748 87.4401 229.098 84.6497C243.836 82.2791 258.028 70.9959 262.771 57.8782C264.015 54.4393 265.937 51.6257 267.041 51.6257C274.605 51.6257 316.122 69.5954 316.122 72.8699C316.122 73.7185 314.916 77.2985 313.442 80.8267C302.459 107.11 322.905 137.474 351.678 137.612C357.355 137.639 365.041 136.39 368.756 134.838C372.47 133.285 375.806 132.015 376.165 132.015C378.93 132.015 396.513 174.395 396.513 181.062C396.513 182.553 393.499 185.031 389.813 186.567C374.134 193.108 364.435 208.101 364.435 225.803C364.435 243.815 374.346 258.7 390.142 264.411C394.121 265.851 396.513 267.882 396.513 269.822C396.513 274.524 387.873 297.76 381.942 309.015L376.688 318.983L367.395 315.773C355.955 311.819 351.406 311.709 339.962 315.107C329.436 318.233 318.968 327.601 314.151 338.203C310.123 347.077 309.796 362.052 313.442 370.779C314.916 374.307 316.122 377.787 316.122 378.512C316.122 381.805 273.822 399.98 266.156 399.98C265.454 399.98 263.913 396.752 262.73 392.804C255.899 370.005 228.464 359.326 205.771 370.634C195.945 375.531 186.672 386.178 184.796 394.717L183.697 399.719L174.433 397C161.25 393.133 139.859 384.079 135.684 380.602C132.374 377.844 132.311 377.178 134.73 370.504C140.129 355.603 136.517 336.392 126.2 325.161C115.606 313.626 93.6507 309.304 79.1321 315.896L71.704 319.269L65.8641 308.313C62.652 302.287 57.8161 290.502 55.1185 282.124L50.2111 266.891L56.3226 264.754C72.4365 259.116 83.8823 242.77 83.8823 225.395C83.8823 208.206 74.7606 194.233 58.5503 186.587L50.1915 182.643L55.5258 166.768C58.4592 158.038 63.288 146.339 66.2571 140.769L71.6558 130.641L77.3224 133.475C80.4398 135.032 87.6071 136.644 93.2523 137.055C124.14 139.304 147.107 104.99 132.96 77.7237C131.515 74.935 130.33 72.4394 130.33 72.1786C130.33 69.9098 173.827 51.8579 179.71 51.6846C180.832 51.6525 183.033 54.8305 184.599 58.7482ZM110.249 71.2675C127.699 81.9057 127.699 108.881 110.249 119.519C102.46 124.269 88.5289 124.269 80.7399 119.519C63.2898 108.881 63.2898 81.9057 80.7399 71.2675C88.5289 66.5174 102.46 66.5174 110.249 71.2675ZM369.285 71.2675C377.73 76.4142 382.208 84.7765 382.208 95.3932C382.208 112.062 371.136 123.063 354.349 123.076C342.608 123.085 334.49 117.854 328.963 106.717C324.313 97.353 324.763 89.9303 330.557 80.4033C338.049 68.0823 356.805 63.6573 369.285 71.2675ZM199.957 106.228C199 108.749 198.216 114.269 198.216 118.494V126.177L187.76 129.989C182.009 132.087 176.728 133.802 176.024 133.802C175.319 133.802 171.237 131.39 166.953 128.442C162.669 125.495 157.683 123.083 155.873 123.083C152.107 123.083 123.184 151.38 123.184 155.062C123.184 156.398 125.971 161.37 129.376 166.109L135.566 174.727L130.868 185.079C128.283 190.774 125.405 195.939 124.472 196.559C123.538 197.177 119.129 198.183 114.674 198.794C110.218 199.405 105.488 200.805 104.16 201.907C100.863 204.643 100.704 245.064 103.98 247.721C105.209 248.717 110.635 250.448 116.039 251.57L125.864 253.607L130.014 264.356L134.162 275.107L128.674 283.66C125.655 288.364 123.184 293.643 123.184 295.388C123.184 299.845 149.751 326.736 154.154 326.736C156.109 326.736 161.579 324.251 166.31 321.216L174.913 315.696L185.632 319.851L196.351 324.008L198.282 333.857C199.345 339.275 200.542 344.713 200.945 345.94C201.481 347.575 207.925 348.173 225.013 348.173C242.1 348.173 248.544 347.575 249.08 345.94C249.483 344.713 250.679 339.282 251.74 333.875L253.667 324.042L264.547 320.08L275.426 316.118L283.144 321.427C287.389 324.346 292.342 326.736 294.152 326.736C297.918 326.736 326.841 298.439 326.841 294.757C326.841 293.421 324.054 288.449 320.649 283.71L314.459 275.092L319.157 264.74C321.742 259.045 324.62 253.88 325.553 253.26C326.487 252.642 330.896 251.636 335.351 251.025C339.807 250.414 344.537 249.014 345.865 247.912C349.255 245.098 349.311 204.768 345.927 201.959C344.634 200.886 339.123 199.485 333.681 198.846L323.784 197.683L319.33 186.346L314.877 175.011L320.858 166.597C324.149 161.968 326.841 157.02 326.841 155.6C326.841 151.977 298.264 123.083 294.683 123.083C293.064 123.083 287.919 125.8 283.248 129.121L274.755 135.159L263.484 130.686L252.211 126.215L251.014 117.195C248.915 101.376 249.383 101.646 224.012 101.646C201.705 101.646 201.699 101.648 199.957 106.228ZM238.531 122.636C239.208 127.302 240.426 132.408 241.237 133.98C242.05 135.55 248.785 139.05 256.202 141.757C263.621 144.461 270.137 147.396 270.682 148.277C272.477 151.184 276.959 149.956 285.159 144.313L293.248 138.748L301.95 147.318L310.652 155.889L306.791 162.263C304.669 165.768 302.13 169.975 301.153 171.611C299.833 173.818 300.794 177.737 304.874 186.796C307.901 193.511 310.873 201.188 311.481 203.855C312.592 208.733 313.791 209.309 330.86 213.153C335.603 214.221 335.773 214.661 335.773 225.892C335.773 238.651 336.104 238.292 322.727 240.085C316.149 240.966 313.803 242.143 312.674 245.13C311.865 247.274 308.574 255.311 305.364 262.991L299.526 276.957L305.144 284.928C308.235 289.312 310.763 293.512 310.763 294.261C310.763 296.042 295.862 310.658 294.045 310.658C293.277 310.658 289.143 308.247 284.859 305.299C280.575 302.351 276.182 299.94 275.1 299.94C274.015 299.94 269.322 301.867 264.672 304.225C260.022 306.582 252.837 309.42 248.708 310.531C240.812 312.657 240.866 312.566 236.769 330.756C235.701 335.499 235.261 335.668 224.03 335.668C211.271 335.668 211.63 335.999 209.837 322.622C208.956 316.044 207.779 313.699 204.792 312.57C202.648 311.761 194.662 308.493 187.045 305.31L173.195 299.523L164.714 305.052L156.234 310.581L147.523 301.889L138.814 293.196L144.397 285.08C150.056 276.857 151.287 272.375 148.379 270.578C147.498 270.033 144.568 263.53 141.867 256.126C139.166 248.723 136.172 242.179 135.211 241.586C134.252 240.991 129.344 239.594 124.304 238.478L115.145 236.45L114.62 224.549L114.095 212.648L122.659 211.438C132.947 209.988 139.263 206.357 139.263 201.897C139.263 200.092 141.664 193.881 144.599 188.093C147.534 182.305 149.942 176.363 149.951 174.889C149.96 173.416 147.566 168.592 144.634 164.173L139.302 156.136L148.013 147.423L156.725 138.712L164.841 144.295C173.064 149.954 177.546 151.185 179.344 148.277C179.888 147.396 186.404 144.461 193.823 141.757C208.168 136.524 209.519 135.17 211.541 123.99C212.25 120.067 213.208 116.248 213.669 115.505C214.128 114.76 219.634 114.151 225.902 114.151H237.298L238.531 122.636ZM203.638 171.677C190.277 176.806 176.76 190.501 171.694 204.042C157.486 242.015 184.858 282.075 225.013 282.075C248.312 282.075 270.369 267.06 278.331 245.777C295.894 198.838 250.414 153.72 203.638 171.677ZM247.838 188.584C259.657 195.891 266.646 207.815 267.566 222.242C268.454 236.198 265.73 244.769 257.523 253.855C247.985 264.411 238.838 268.545 225.013 268.545C192.254 268.545 172.017 235.199 186.788 205.559C194.864 189.354 209.16 181.469 228.234 182.7C236.678 183.245 241.582 184.717 247.838 188.584ZM54.5754 199.728C64.5528 204.258 69.5906 212.789 69.5906 225.153C69.5906 237.936 63.8972 246.6 52.6836 250.883C23.366 262.08 0.483251 225.442 23.4196 204.026C32.1464 195.88 42.8509 194.403 54.5754 199.728ZM423.067 201.207C440.068 213.796 440.109 235.993 423.154 248.546C411.805 256.949 391.784 252.676 384.075 240.203C379.043 232.061 379.139 217.601 384.284 209.278C391.837 197.056 411.84 192.893 423.067 201.207ZM110.249 330.3C127.699 340.938 127.699 367.913 110.249 378.552C97.3951 386.391 77.2885 380.981 70.5035 367.862C66.6483 360.407 67.0681 346.725 71.3682 339.672C79.0231 327.117 97.6595 322.624 110.249 330.3ZM369.285 330.3C381.84 337.955 386.333 356.591 378.657 369.18C368.019 386.63 341.043 386.63 330.405 369.18C322.728 356.591 327.221 337.955 339.776 330.3C347.565 325.55 361.496 325.55 369.285 330.3ZM241.403 384.747C253.371 392.879 256.915 411.885 248.565 423.162C242.622 431.192 234.141 435.709 225.013 435.709C215.884 435.709 207.403 431.192 201.46 423.162C193.11 411.885 196.654 392.879 208.622 384.747C217.736 378.553 232.289 378.553 241.403 384.747Z" fill="#035A9A" fill-opacity="0.95"/>
</svg>
