<svg width="450" height="450" viewBox="0 0 450 450" fill="none" xmlns="http://www.w3.org/2000/svg">
<path fill-rule="evenodd" clip-rule="evenodd" d="M203.152 2.09378C200.593 5.24723 201.869 10.9291 205.499 12.5605C207.773 13.5817 209.493 16.9654 211.709 24.7676C213.393 30.7037 214.773 36.3482 214.773 37.3126C214.773 38.2755 210.15 44.8336 204.502 51.8852C198.852 58.9367 194.415 65.1375 194.64 65.6639C194.865 66.1902 197.904 73.4555 201.391 81.8079L207.735 96.9936L196.643 111.802C190.543 119.947 185.552 127.396 185.552 128.358C185.552 129.319 187.524 136.23 189.935 143.717C192.346 151.203 194.318 157.78 194.318 158.328C194.318 159.231 182.059 165.905 180.399 165.905C180.019 165.905 179.708 163.315 179.708 160.149C179.708 156.984 179.293 149.379 178.787 143.249L177.867 132.105L143.722 116.602C118.79 105.283 109.578 100.425 109.578 98.5965C109.578 94.9197 104.483 90.8272 100.616 91.3969C96.1656 92.0503 92.1945 99.1452 94.335 102.619C97.1577 107.2 100.385 108.411 105.011 106.623C108.896 105.123 112.135 106.263 140.479 119.093C157.634 126.861 172.4 134.174 173.289 135.348C174.178 136.52 175.358 144.21 175.912 152.436L176.919 167.391L160.483 183.816C145.319 198.97 143.817 200.089 141.057 198.272C139.414 197.191 133.692 193.816 128.343 190.773L118.619 185.243L117.666 169.218C116.134 143.425 117.44 145.7 99.1944 137.023C84.2742 129.926 83.2792 129.18 83.2792 125.091C83.2792 122.211 83.9001 120.974 85.1055 121.451C86.1107 121.85 94.9588 125.372 104.768 129.277L122.605 136.38L123.328 142.545C123.727 145.936 124.577 156.009 125.217 164.931L126.38 181.155L135.055 184.755L143.73 188.356L147.474 184.884C167.1 166.687 167.463 166.229 166.953 160.327C165.502 143.539 165.127 142.356 160.647 140.457C158.273 139.451 156.331 137.805 156.331 136.798C156.331 134.333 151.521 130.019 148.772 130.019C145.181 130.019 141.334 135.387 142.419 138.884C143.772 143.249 148.303 145.472 151.865 143.522C153.856 142.431 155.772 142.465 158.286 143.638C161.356 145.068 162.013 146.673 162.864 154.804L163.857 164.3L154.077 173.699C148.696 178.87 143.747 183.314 143.077 183.575C142.406 183.836 138.869 182.696 135.215 181.042C128.576 178.037 128.571 178.03 128.408 170.1C128.319 165.737 127.825 155.869 127.312 148.17L126.38 134.174L105.655 125.714C94.2575 121.062 84.5518 116.867 84.0886 116.393C83.624 115.919 82.7591 110.572 82.1659 104.513L81.0877 93.4962L70.3695 86.7094C62.9941 82.0397 59.0567 78.4765 57.7476 75.2902C55.3559 69.4692 51.7339 67.9695 47.2777 70.957C40.6344 75.4128 44.8671 84.7252 52.7976 83.1028C56.0061 82.4449 59.3007 83.8041 67.8682 89.3185L78.8319 96.3761L78.8741 104.6C78.8975 109.123 79.3228 117.221 79.8195 122.595C80.5574 130.587 81.2864 132.636 83.8271 133.844C85.5351 134.657 92.6357 137.914 99.6078 141.082L112.285 146.842L113.16 158.242C113.643 164.513 114.386 173.714 114.814 178.69L115.592 187.737L129.717 195.886C137.487 200.367 144.432 203.837 145.153 203.598C145.873 203.359 146.053 204.255 145.553 205.59C145.052 206.924 144.643 208.302 144.643 208.654C144.643 209.005 124.935 199.024 100.848 186.476C72.1096 171.506 57.0405 162.865 57.0171 161.344C56.966 158.077 54.0117 155.438 50.4058 155.438C44.1993 155.438 41.72 162.035 46.2039 166.624C47.8388 168.297 49.877 168.759 52.764 168.11C56.7935 167.204 66.844 172.11 140.51 210.949C142.57 212.034 142.717 213.115 141.453 217.854C140.628 220.943 139.734 223.711 139.466 224.002C139.197 224.295 126.609 217.997 111.493 210.008C88.5024 197.856 83.6518 194.715 81.8182 190.787C78.8655 184.458 72.7846 183.584 69.3234 188.991C67.0252 192.58 67.028 193.064 69.3744 196.729C71.5485 200.125 72.58 200.521 77.213 199.737C81.9073 198.945 85.9428 200.588 110.783 213.396L139.018 227.957L138.125 236.161C137.633 240.673 136.705 244.903 136.064 245.559C135.422 246.215 127.804 246.562 119.136 246.328L103.374 245.9L93.2406 227.583L83.1053 209.267H55.6875C28.331 209.267 28.2609 209.258 24.8376 205.528C20.6985 201.019 15.6448 200.732 11.6883 204.781C8.17746 208.374 7.98018 211.937 11.0411 216.409C14.2232 221.06 21.0054 220.828 25.1693 215.926L28.4026 212.119L54.3945 212.365L80.3864 212.608L88.3329 227.012C100.838 249.68 103.976 247.253 63.4427 246.256L28.5063 245.397L21.9069 250.25C16.669 254.101 14.2291 254.973 10.0812 254.478C3.78701 253.726 0 256.915 0 262.97C0 268.05 4.04563 272.067 9.16365 272.067C13.4693 272.067 17.5324 267.247 17.5324 262.141C17.5324 260.115 19.7094 257.096 23.2217 254.249L28.911 249.638H83.1244C112.941 249.638 137.329 250.142 137.32 250.759C137.31 251.377 135.172 253.358 132.572 255.163C129.97 256.968 122.625 262.183 116.251 266.751L104.66 275.057H86.8909C70.837 275.057 68.8602 274.761 66.413 271.993C62.3878 267.442 55.2784 268.545 53.4098 274.015C51.5338 279.51 53.772 283.145 59.3941 283.728C62.287 284.027 64.5955 283.166 66.413 281.111C68.8821 278.32 70.8253 278.048 88.3344 278.048H107.547L122.077 267.588C130.069 261.835 136.993 257.125 137.463 257.122C138.146 257.116 142.58 271.386 143.376 276.149C143.607 277.529 137.859 280.766 125.44 286.25L115.733 290.536L113.165 307.094C111.753 316.202 110.151 324.937 109.604 326.508C108.913 328.494 103.972 331.028 93.3882 334.829C76.1216 341.03 77.6674 338.807 74.1142 362.529L72.3214 374.49L62.0942 380.026C53.8364 384.497 50.8383 385.4 46.5267 384.718C42.0823 384.014 40.9062 384.411 39.5065 387.088C37.2375 391.427 38.8827 395.97 43.1153 397.057C47.3903 398.154 49.462 396.938 51.1744 392.332C52.0568 389.957 56.3538 386.796 64.1586 382.78L75.8236 376.777L76.8156 367.81C77.3606 362.877 78.5455 357.926 79.447 356.808C80.3499 355.689 89.6348 352.223 100.081 349.107C110.528 345.99 119.839 342.823 120.774 342.068C121.709 341.314 122.901 337.199 123.424 332.923C124.343 325.414 126.647 310.621 127.933 303.984C128.368 301.738 130.539 300.071 135.102 298.48L141.648 296.198L150.45 306.029C159.678 316.335 159.823 316.741 158.308 328.05C157.542 333.766 156.664 335.38 153.687 336.538C151.258 337.483 149.497 337.441 148.496 336.417C146.447 334.321 141.245 334.457 139.091 336.661C136.692 339.116 136.885 344.583 139.449 346.76C142.577 349.418 148.092 348.052 149.738 344.21C150.532 342.359 153.244 340.148 155.767 339.297C159.915 337.894 160.447 337.005 161.345 329.952C161.892 325.665 162.693 320.683 163.124 318.883C163.733 316.342 161.673 313.156 153.941 304.678C148.459 298.665 143.457 293.52 142.825 293.242C142.194 292.964 138.059 293.9 133.638 295.324C127.727 297.225 125.44 298.745 124.993 301.062C123.715 307.706 121.415 322.474 120.533 329.705C120.027 333.856 119.162 337.966 118.613 338.838C117.622 340.408 80.5704 352.038 79.6397 351.071C79.3723 350.794 79.4704 348.881 79.8576 346.821C80.4697 343.563 82.6334 342.331 96.4476 337.371L112.335 331.67L113.809 323.923C114.62 319.662 116.053 311.018 116.994 304.714L118.705 293.253L131.309 287.321C138.241 284.058 144.39 281.676 144.973 282.028C145.556 282.378 148.48 286.437 151.469 291.047C154.46 295.655 160.495 303.015 164.883 307.399L172.86 315.37L170.378 330.663C169.013 339.076 167.714 346.144 167.493 346.371C167.271 346.597 152.407 351.874 134.461 358.094C111.686 365.989 101.37 368.931 100.299 367.835C98.2242 365.712 91.5765 365.849 89.4156 368.061C88.4513 369.048 87.6623 371.355 87.6623 373.188C87.6623 381.179 98.328 383.951 101.766 376.854C104.023 372.198 102.252 372.989 138.799 360.295C156.075 354.293 170.335 349.297 170.489 349.193C170.641 349.088 171.871 342.289 173.222 334.085C174.574 325.88 175.906 318.908 176.185 318.591C176.464 318.275 178.685 318.862 181.122 319.895L185.552 321.773V340.729C185.552 361.258 184.874 363.276 177.982 363.276C174.861 363.276 173.706 364.148 172.997 367.034C171.954 371.292 174.423 375.238 178.133 375.238C181.517 375.238 184.091 372.28 184.091 368.393C184.091 366.603 185.077 364.3 186.282 363.276C188.004 361.814 188.474 357.627 188.474 343.744C188.474 334.023 188.966 325.789 189.57 325.445C190.173 325.1 192.802 325.735 195.414 326.855L200.162 328.895V371.504C200.162 394.939 199.61 414.114 198.937 414.114C198.262 414.114 196.944 415.835 196.007 417.938C192.813 425.112 199.644 431.067 205.912 426.574C209.757 423.818 209.808 417.692 206.007 415.263C203.198 413.468 203.084 411.776 203.084 371.797V330.2L208.563 330.665L214.042 331.129L214.773 384.21C215.442 432.862 215.293 437.585 212.979 440.815C209.57 445.571 211.822 450 217.648 450C222.855 450 224.997 445.155 221.526 441.229C219.594 439.047 219.094 430.52 218.237 385.265L217.227 331.876H223.803H230.38L231.393 378.451C232.396 424.553 232.374 425.061 229.309 428.401C226.763 431.173 226.503 432.334 227.849 434.907C230.618 440.202 239.61 438.17 239.61 432.25C239.61 431.04 238.705 428.987 237.597 427.69C236.003 425.822 235.47 415.5 235.04 378.258L234.497 331.188L239.964 330.275C242.971 329.771 245.766 329.702 246.173 330.119C246.581 330.538 246.916 344.201 246.916 360.482C246.916 388.555 246.765 390.168 243.993 391.686C239.683 394.047 240.028 401.731 244.54 403.833C249.67 406.225 254.221 403.28 254.221 397.566C254.221 394.965 253.303 392.726 252.029 392.227C250.177 391.499 249.838 386.451 249.838 359.553C249.838 330.538 250.063 327.673 252.394 326.987C253.8 326.573 256.103 325.75 257.508 325.157C259.837 324.176 260.065 325.342 260.065 338.262C260.065 349.043 260.591 352.89 262.256 354.305C263.462 355.329 264.448 358.079 264.448 360.416C264.448 365.467 268.118 367.967 272.849 366.138C278.931 363.788 276.297 354.305 269.562 354.305C264.074 354.305 262.987 351.437 262.987 336.957V323.198L267.697 320.146C270.288 318.468 272.592 317.284 272.82 317.516C273.147 317.852 279.058 349.357 279.058 350.768C279.058 350.973 294.569 356.377 313.526 362.778C344.073 373.092 348.225 374.876 350.036 378.459C353.663 385.639 362.72 385.812 365.343 378.75C368.106 371.316 361.429 365.926 353.579 369.254C349.885 370.82 346.092 369.908 319.718 361.105C303.382 355.653 288.275 350.493 286.146 349.64C282.582 348.209 282.036 346.77 279.237 331.445L276.196 314.805L283.266 308.014C287.156 304.28 293.736 296.391 297.891 290.485L305.446 279.748L313.603 283.439C330.142 290.924 332.836 292.758 333.657 297.077C334.09 299.358 335.51 307.952 336.813 316.176C338.117 324.4 339.626 331.55 340.168 332.065C340.71 332.58 345.755 334.533 351.38 336.407C370.332 342.718 374.026 344.792 374.026 349.119C374.026 352.123 373.443 352.835 371.469 352.24C370.062 351.815 361.352 349.306 352.11 346.663C342.869 344.019 334.797 341.41 334.173 340.863C333.548 340.315 331.448 330.595 329.507 319.259C327.565 307.924 325.642 298.308 325.233 297.891C324.825 297.474 320.679 295.841 316.02 294.262L307.549 291.394L304.833 294.814C303.338 296.695 298.508 302.197 294.098 307.04C286.964 314.875 286.183 316.36 287.009 320.497C287.521 323.056 288.339 328.065 288.828 331.632C289.575 337.077 290.479 338.488 294.474 340.436C297.089 341.713 299.937 344.346 300.8 346.289C302.54 350.197 309.261 351.207 312.37 348.025C314.625 345.718 314.625 340.463 312.37 338.156C310.249 335.985 302.961 335.777 301.707 337.851C301.139 338.793 299.281 338.533 296.657 337.144C293.011 335.215 292.377 333.836 291.473 325.856L290.441 316.765L299.212 306.752C308.392 296.27 310.325 295.513 319.149 298.946C322.171 300.122 322.894 302.287 325.753 318.688C330.512 345.988 329.162 343.76 343.422 347.866C350.21 349.819 360.11 352.732 365.422 354.336L375.079 357.255L376.803 368.185L378.526 379.117L390.886 385.391C397.807 388.903 403.247 392.608 403.247 393.81C403.247 396.832 407.327 400.657 410.552 400.657C414.066 400.657 417.857 396.74 417.857 393.109C417.857 388.83 411.513 385.072 407.76 387.128C405.302 388.475 402.76 387.731 393.417 382.933L382.062 377.101L379.14 359.372L376.218 341.643L359.416 335.486L342.614 329.33L340.139 314.528C338.777 306.388 337.26 297.502 336.768 294.779C335.969 290.356 334.756 289.311 325.363 284.944C319.583 282.257 312.716 279.187 310.106 278.124C307.495 277.059 305.357 275.924 305.357 275.601C305.357 274.688 310.224 256.431 310.62 255.863C310.813 255.585 318.046 260.464 326.696 266.703L342.421 278.048H361.65C379.175 278.048 381.118 278.32 383.587 281.111C385.404 283.166 387.713 284.027 390.606 283.728C396.228 283.145 398.466 279.51 396.59 274.015C394.722 268.545 387.612 267.442 383.587 271.993C381.14 274.761 379.163 275.057 363.156 275.057H345.435L328.19 262.721L310.946 250.386L365.496 249.992L420.049 249.599L425.839 253.763C429.808 256.616 431.933 259.444 432.593 262.745C433.902 269.299 436.455 272.067 441.186 272.067C446.076 272.067 450 267.901 450 262.711C450 256.9 446.125 253.736 439.919 254.478C435.787 254.972 433.313 254.097 428.102 250.299L421.51 245.498L386.81 246.188C367.726 246.568 352.11 246.381 352.11 245.773C352.11 245.164 356.073 237.45 360.916 228.633L369.722 212.599L395.746 212.46C421.698 212.323 421.777 212.332 424.917 216.028C428.996 220.829 435.809 221.015 438.959 216.409C442.02 211.937 441.823 208.374 438.312 204.781C434.364 200.741 429.304 201.016 425.192 205.497C421.831 209.157 421.448 209.208 394.099 209.609L366.41 210.014L356.615 227.957L346.821 245.9L330.23 246.325C321.106 246.559 313.158 246.223 312.567 245.577C311.979 244.932 311.089 239.695 310.591 233.938L309.686 223.471L323.697 212.564C337.916 201.494 340.771 200.554 344.852 205.587C347.546 208.908 354.645 208.384 355.763 204.781C356.926 201.032 355.535 196.327 352.967 195.319C351.893 194.896 349.212 195.507 347.011 196.675C344.811 197.844 341.351 198.8 339.323 198.8C336.962 198.8 330.925 202.61 322.526 209.398C315.095 215.406 308.864 219.434 308.143 218.697C307.445 217.982 306.465 215.309 305.966 212.758C305.078 208.212 305.727 207.574 338.219 181.03C366.046 158.298 372.148 153.943 376.175 153.943C381.975 153.943 384.626 151.067 383.993 145.463C383.342 139.686 376.86 137.254 372.609 141.193C370.978 142.703 369.643 145.502 369.643 147.412C369.643 150.143 362.628 156.642 336.81 177.832C318.753 192.654 303.696 204.781 303.351 204.781C303.006 204.781 301.331 202.365 299.628 199.411L296.534 194.044L299.849 191.357C301.674 189.879 320.888 174.128 342.548 156.355C371.107 132.92 382.972 124.038 385.722 124.038C387.806 124.038 390.302 123.231 391.266 122.244C394.004 119.442 393.334 113.848 390.042 112.046C385.58 109.601 381.522 111.648 380.161 117.031C379.173 120.935 371.488 127.935 337.585 155.812C314.83 174.52 295.764 189.828 295.215 189.828C294.665 189.828 292.317 187.801 289.997 185.322C286.323 181.397 286.051 180.543 287.898 178.698C289.062 177.535 306.099 163.436 325.756 147.37C353.674 124.552 362.181 118.335 364.629 118.963C370.42 120.451 375.025 112.202 370.812 107.889C366.665 103.646 359.416 106.867 359.416 112.951C359.416 114.748 357.855 117.265 355.947 118.544C352.464 120.879 315.938 150.677 294.756 168.463L283.423 177.979L278.348 173.834C274.424 170.63 273.68 169.309 275.07 168.014C276.057 167.092 286.866 158.165 299.086 148.179C317.51 133.122 322.142 130.019 326.189 130.019C328.874 130.019 331.86 129.211 332.825 128.225C335.085 125.911 335.085 119.174 332.825 116.861C328.5 112.435 319.967 116.971 319.967 123.696C319.967 126.785 318.138 128.42 280.848 158.689L270.221 167.316L265.142 164.839C262.35 163.475 260.065 161.959 260.065 161.468C260.065 160.978 264.918 156.754 270.852 152.08C278.062 146.399 281.976 142.202 282.658 139.418C283.219 137.127 284.941 134.049 286.482 132.577C289.886 129.33 290.041 126.52 286.99 123.396C284.255 120.599 280.316 120.358 277.89 122.842C275.762 125.019 275.578 130.985 277.597 132.262C278.401 132.77 279.058 135.119 279.058 137.482C279.058 140.64 277.802 142.669 274.31 145.146C271.698 146.999 266.401 151.177 262.538 154.43C255.616 160.26 255.43 160.317 249.754 158.4C246.585 157.329 243.993 156.22 243.993 155.933C243.993 155.646 248.526 149.556 254.066 142.399L264.138 129.388L260.813 121.853C235.1 63.6004 235.113 63.6348 236.779 59.5184C240.145 51.2019 230.789 44.1832 224.676 50.4393C220.564 54.6454 222.174 60.9703 227.921 63.1907C231.126 64.4288 233.131 67.0544 236.079 73.8757C238.228 78.8488 241.315 85.9468 242.94 89.6475C244.563 93.3482 249.081 103.683 252.979 112.616L260.065 128.856L249.998 141.773L239.932 154.69L218.699 155.007L197.464 155.324L193.005 141.718L188.546 128.111L198.373 115.315C203.777 108.275 209.031 101.342 210.048 99.9063C211.615 97.6963 210.875 94.9332 205.226 81.8947C199.648 69.0207 198.809 65.9225 200.11 63.0008C200.966 61.0794 202.313 59.7292 203.103 59.9984C203.894 60.269 208.409 68.5646 213.135 78.4332L221.727 96.3761L210.492 111.328C204.313 119.552 198.739 127.163 198.108 128.241C197.44 129.379 198.397 133.621 200.386 138.347L203.815 146.493L219.818 146.106L235.82 145.719L242.163 137.174C248.32 128.878 248.441 128.503 246.324 124.313C244.823 121.342 244.614 119.515 245.653 118.452C247.928 116.124 246.571 110.437 243.196 108.156C240.652 106.436 239.724 106.479 236.986 108.443C232.289 111.81 232.798 117.468 238.046 120.245C244.867 123.856 245.021 127.568 238.696 136.055L233.166 143.476H219.878H206.589L203.53 137.033L200.471 130.589L213.231 113.677L225.992 96.7663L215.801 76.0363L205.611 55.3063L212.346 47.238L219.083 39.1682L215.373 26.0759C212.752 16.8249 212.121 12.5156 213.218 11.3927C215.3 9.26195 215.191 3.94936 213.019 1.72744C210.62 -0.727743 205.279 -0.530368 203.152 2.09378ZM234.795 53.2788C236.696 56.2139 236.595 56.8479 233.766 59.7427C230.938 62.6375 230.318 62.7406 227.45 60.7953C223.345 58.0097 222.772 54.7606 225.834 51.6251C228.898 48.491 232.073 49.0771 234.795 53.2788ZM105.822 94.987C108.555 97.7861 108.79 101.817 106.364 104.301C100.689 110.108 91.7736 101.719 97.1532 95.6344C100.344 92.0279 102.752 91.847 105.822 94.987ZM331.589 118.722C332.553 119.911 333.126 122.434 332.864 124.33C331.989 130.65 321.429 129.107 321.429 122.659C321.429 117.158 328.195 114.537 331.589 118.722ZM381.264 142.646C384.056 146.088 382.564 151.627 378.694 152.189C372.232 153.126 368.972 147.367 373.399 142.835C376.261 139.907 378.989 139.841 381.264 142.646ZM238.149 162.126C241.765 162.594 248.34 164.432 252.76 166.211C307.457 188.237 322.327 259.019 281.117 301.194C236.713 346.637 161.413 324.982 146.244 262.406C143.728 252.027 144.094 231.102 146.964 221.228C156.451 188.595 183.48 165.013 215.503 161.432C224.214 160.457 225.541 160.498 238.149 162.126ZM208.198 174.695C194.168 181.282 188.474 193.516 188.474 217.076C188.474 230.755 188.15 232.603 185.187 235.831C182.003 239.298 181.899 240.362 181.899 269.329C181.899 298.964 181.932 299.272 185.349 302.103C188.528 304.739 191.51 304.962 223.539 304.962C255.555 304.962 258.551 304.738 261.729 302.106C265.11 299.308 265.187 298.667 265.629 270.177L266.079 241.102L262.341 236.556C258.855 232.317 258.604 230.964 258.604 216.42C258.604 197.705 256.205 189.292 248.577 181.246C245.551 178.056 240.541 174.738 237.203 173.716C228.444 171.03 215.042 171.482 208.198 174.695ZM78.3116 187.982C83.0249 191.204 80.8714 198.8 75.2435 198.8C70.5214 198.8 67.9354 193.981 70.4484 189.863C72.336 186.769 75.448 186.025 78.3116 187.982ZM234.985 190.803C240.464 194.417 242.533 201.719 242.533 217.443V231.695H223.41H204.287L204.782 215.621C205.21 201.704 205.729 198.899 208.65 194.707C214.041 186.973 226.398 185.141 234.985 190.803ZM22.6212 205.717C26.2081 209.386 24.8888 215.66 20.1769 217.347C15.1305 219.152 11.6883 216.436 11.6883 210.653C11.6883 204.104 18.1797 201.171 22.6212 205.717ZM435.636 205.155C439.345 208.212 439.803 211.888 436.931 215.518C434.624 218.434 433.632 218.71 430.064 217.432C425.116 215.662 423.7 209.482 427.379 205.717C430.226 202.803 432.589 202.641 435.636 205.155ZM229.37 253.361C232.463 256.731 232.603 257.476 230.853 261.211C229.664 263.747 229.057 269.517 229.279 276.178L229.64 287.019H223.457H217.273L218.101 275.821C218.555 269.662 218.402 264.29 217.758 263.882C215.106 262.205 215.198 256.965 217.942 253.394C221.594 248.642 225.029 248.632 229.37 253.361ZM14.0142 259.357C16.2306 262.82 16.2306 263.37 14.0142 266.833C11.2368 271.171 7.91148 271.596 4.13324 268.097C-1.08852 263.261 1.89346 255.794 9.09785 255.664C10.4858 255.64 12.6978 257.301 14.0142 259.357ZM445.713 257.167C449.177 259.064 449.372 264.161 446.121 267.837C442.758 271.64 438.813 271.249 435.986 266.833C433.769 263.37 433.769 262.82 435.986 259.357C438.566 255.329 441.251 254.723 445.713 257.167ZM100.536 373.318C100.923 377.412 100.432 378.269 97.2292 379.091C92.9761 380.184 89.1234 377.696 89.1234 373.859C89.1234 370.099 92.2996 367.579 96.4183 368.071C99.3637 368.424 100.17 369.451 100.536 373.318ZM362.046 371.051C367.004 376.126 361.173 384.582 355.032 381.219C349.875 378.395 352.107 369.257 357.955 369.257C359.24 369.257 361.081 370.065 362.046 371.051ZM250.448 392.593C253.968 393.975 253.457 401.725 249.768 402.922C244.195 404.733 240.131 397.732 244.286 393.48C246.276 391.443 247.187 391.312 250.448 392.593ZM206.455 418.77C208.645 422.347 206.611 426.076 202.472 426.076C198.015 426.076 195.447 422.027 197.462 418.174C199.163 414.922 204.307 415.264 206.455 418.77Z" fill="#035A9A" fill-opacity="0.95"/>
</svg>
