<?xml version="1.0" standalone="no"?>
<!DOCTYPE svg PUBLIC "-//W3C//DTD SVG 20010904//EN"
 "http://www.w3.org/TR/2001/REC-SVG-20010904/DTD/svg10.dtd">
<svg version="1.0" xmlns="http://www.w3.org/2000/svg"
 width="844.000000pt" height="844.000000pt" viewBox="0 0 844.000000 844.000000"
 preserveAspectRatio="xMidYMid meet">
<metadata>
Created by potrace 1.14, written by Peter Selinger 2001-2017
</metadata>
<g transform="translate(0.000000,844.000000) scale(0.100000,-0.100000)"
fill="#000000" stroke="none">
<path d="M480 8418 c-51 -26 -58 -31 -103 -73 -35 -33 -91 -128 -80 -139 3 -3
2 -6 -4 -6 -6 0 -14 -17 -18 -37 -4 -21 -10 -42 -13 -48 -4 -5 -7 -14 -9 -20
-1 -5 -14 -53 -27 -105 -14 -52 -29 -113 -32 -135 -11 -75 -12 -80 -14 -82 -4
-5 -10 -41 -25 -158 -3 -20 -11 -81 -20 -145 -3 -19 -7 -59 -10 -87 -3 -29 -7
-77 -10 -105 -21 -196 -29 -423 -30 -783 0 -397 13 -659 41 -840 2 -16 6 -52
9 -80 2 -27 5 -50 5 -50 1 0 3 -12 5 -26 4 -28 12 -77 19 -119 3 -14 12 -63
20 -110 14 -80 18 -97 31 -160 3 -14 7 -34 9 -45 4 -20 49 -208 72 -297 3 -13
7 -30 9 -38 2 -8 4 -15 5 -15 1 0 3 -7 5 -15 17 -65 37 -138 44 -155 4 -11 34
-99 65 -195 50 -153 87 -256 116 -325 4 -11 29 -72 55 -135 26 -63 58 -140 72
-170 14 -30 32 -71 40 -90 26 -57 181 -367 214 -427 17 -31 44 -78 60 -105 16
-27 29 -50 29 -52 0 -13 211 -350 222 -354 5 -2 8 -8 8 -13 0 -12 216 -327
240 -349 3 -3 20 -26 38 -52 17 -25 41 -57 52 -70 11 -13 50 -61 87 -108 72
-91 71 -89 123 -150 19 -23 42 -49 50 -59 211 -246 476 -513 750 -755 14 -12
66 -55 115 -96 50 -41 92 -78 93 -82 2 -5 8 -8 13 -8 5 0 18 -8 28 -18 11 -9
26 -22 33 -27 7 -6 33 -26 58 -45 25 -19 50 -38 55 -42 6 -5 43 -33 83 -63 40
-30 76 -55 81 -55 5 0 11 -4 13 -9 1 -5 71 -56 153 -115 83 -58 155 -110 161
-114 5 -5 30 -22 55 -38 24 -16 46 -31 49 -34 10 -11 348 -230 435 -282 50
-30 116 -67 148 -83 52 -25 62 -27 95 -17 42 13 178 89 300 168 45 30 87 54
92 54 4 0 10 4 12 8 2 5 71 53 153 108 83 54 152 101 155 104 3 3 68 50 145
104 77 55 146 106 153 115 6 8 12 11 12 6 0 -5 10 1 23 12 22 20 144 114 187
143 12 8 34 25 48 37 15 11 83 66 152 121 69 55 139 112 155 127 17 15 57 50
90 80 142 125 422 400 525 516 36 40 72 80 81 88 8 9 40 45 70 81 30 36 57 67
60 70 3 3 46 55 95 115 48 61 92 112 96 113 4 2 8 10 8 17 0 7 3 15 8 17 4 2
36 41 70 88 35 47 69 92 77 101 7 9 37 52 66 95 29 44 56 81 61 82 4 2 8 10 8
18 0 8 5 14 10 14 6 0 10 5 10 10 0 6 26 49 58 98 32 48 89 139 127 202 37 63
76 127 86 142 11 15 19 29 19 31 0 3 21 42 47 88 60 108 201 392 243 489 18
41 35 77 39 80 3 3 7 12 9 20 2 8 21 58 43 110 73 172 186 477 204 550 2 8 18
60 35 115 53 170 149 556 165 665 4 24 8 47 10 50 2 3 6 26 10 50 3 25 8 52
10 60 2 8 7 35 10 60 3 25 8 56 10 70 3 14 7 45 10 69 3 23 7 55 10 70 7 39
20 192 32 381 10 151 10 750 0 910 -12 200 -20 298 -31 395 -2 17 -7 61 -11
100 -4 38 -8 77 -10 86 -2 9 -6 40 -10 70 -3 30 -8 66 -11 81 -3 15 -7 42 -10
60 -3 18 -6 45 -8 60 -7 47 -37 193 -43 208 -3 8 -7 24 -8 35 -15 107 -76 253
-126 305 -65 66 -138 108 -180 104 -54 -5 -244 -71 -374 -129 -115 -51 -355
-142 -363 -136 -1 1 -16 -6 -32 -14 -17 -9 -30 -13 -30 -11 0 3 -17 -2 -38
-11 -20 -8 -39 -15 -42 -14 -3 0 -27 -6 -55 -13 -27 -8 -61 -17 -75 -20 -14
-3 -68 -15 -120 -26 -52 -12 -111 -23 -130 -25 -19 -3 -46 -6 -60 -8 -157 -25
-245 -30 -515 -31 -231 -1 -376 5 -441 18 -12 2 -45 7 -74 11 -29 4 -62 9 -74
11 -12 2 -38 6 -60 9 -21 3 -41 7 -45 9 -3 2 -26 7 -50 11 -24 3 -87 17 -140
31 -53 14 -105 27 -115 29 -82 19 -365 123 -491 180 -146 66 -257 110 -317
125 -50 13 -99 2 -195 -41 -24 -10 -45 -19 -47 -19 -2 0 -21 -8 -42 -17 -22
-9 -41 -17 -44 -18 -3 -1 -36 -16 -75 -34 -38 -18 -119 -53 -180 -77 -60 -25
-119 -49 -130 -54 -25 -11 -145 -51 -165 -55 -8 -2 -51 -12 -95 -24 -80 -20
-109 -26 -175 -37 -56 -9 -75 -12 -75 -14 0 -1 -18 -3 -40 -4 -22 -2 -83 -7
-135 -12 -114 -11 -812 -12 -925 -2 -196 18 -228 22 -350 48 -109 24 -258 66
-288 82 -10 5 -31 12 -45 14 -15 3 -31 9 -37 13 -5 4 -32 16 -60 26 -27 10
-68 26 -90 35 -107 47 -336 140 -359 146 -14 3 -29 10 -32 15 -3 5 -15 9 -28
9 -12 0 -26 4 -31 9 -23 23 -89 22 -135 -1z m3899 -617 c193 -78 609 -212 731
-236 26 -5 41 -8 125 -25 55 -11 89 -16 150 -25 22 -3 51 -8 65 -10 241 -42
822 -47 1090 -10 19 3 55 7 80 10 77 9 124 16 140 20 8 3 35 7 60 10 92 11
447 96 510 122 8 3 20 7 25 8 6 2 49 15 97 29 93 29 110 33 174 42 27 3 44 1
51 -8 13 -15 29 -75 38 -138 4 -24 8 -47 10 -50 2 -3 6 -36 10 -74 3 -38 9
-85 11 -105 3 -20 7 -65 9 -101 2 -36 4 -65 5 -65 1 0 3 -18 4 -40 28 -384 28
-952 1 -1230 -3 -27 -7 -68 -9 -90 -6 -60 -17 -155 -22 -195 -3 -19 -7 -48 -9
-63 -2 -15 -7 -47 -11 -70 -3 -23 -7 -51 -9 -62 -1 -11 -3 -20 -5 -20 -1 0 -3
-9 -4 -20 -3 -25 -18 -117 -22 -130 -1 -5 -5 -26 -9 -45 -3 -19 -13 -64 -21
-100 -16 -66 -19 -83 -29 -135 -4 -16 -10 -41 -16 -55 -5 -14 -10 -34 -12 -45
-2 -11 -9 -40 -16 -65 -7 -25 -15 -52 -16 -60 -2 -8 -20 -69 -40 -135 -20 -66
-37 -124 -38 -130 -2 -5 -6 -16 -10 -22 -5 -7 -10 -21 -12 -30 -6 -31 -73
-217 -111 -309 -20 -49 -46 -114 -59 -144 -23 -56 -53 -123 -123 -271 -22 -46
-40 -88 -40 -93 0 -5 -4 -12 -9 -15 -5 -3 -28 -44 -52 -91 -48 -93 -59 -112
-117 -213 -21 -38 -50 -88 -63 -110 -13 -23 -34 -55 -46 -72 -12 -16 -25 -40
-29 -52 -4 -13 -11 -23 -14 -23 -4 0 -18 -20 -32 -45 -14 -25 -28 -45 -31 -45
-4 0 -12 -13 -19 -30 -7 -16 -16 -30 -21 -30 -5 0 -9 -7 -9 -15 0 -8 -4 -15
-10 -15 -5 0 -10 -5 -10 -10 0 -6 -5 -16 -11 -23 -12 -14 -132 -180 -156 -217
-10 -14 -24 -32 -32 -41 -9 -9 -25 -29 -36 -45 -11 -15 -44 -56 -72 -90 -29
-34 -53 -65 -53 -68 0 -3 -10 -16 -22 -28 -13 -13 -43 -48 -68 -78 -25 -30
-56 -67 -70 -81 -14 -15 -61 -67 -105 -115 -103 -113 -331 -340 -425 -424 -40
-36 -78 -70 -84 -75 -6 -6 -56 -48 -111 -94 -55 -46 -111 -93 -125 -105 -14
-11 -45 -37 -70 -56 -25 -19 -51 -40 -58 -47 -7 -7 -41 -34 -75 -60 -34 -26
-63 -51 -65 -55 -2 -4 -8 -8 -13 -8 -6 0 -20 -9 -32 -21 -21 -19 -225 -174
-397 -301 -96 -70 -246 -170 -288 -192 -38 -20 -71 -18 -127 9 -51 24 -231
135 -315 195 -36 26 -89 63 -117 83 -29 20 -61 43 -70 51 -32 26 -144 111
-161 121 -9 6 -21 15 -28 20 -6 6 -29 24 -50 41 -148 120 -330 269 -334 273
-3 4 -39 35 -80 71 -170 147 -262 233 -454 425 -148 147 -252 258 -336 355
-12 14 -32 37 -45 51 -12 14 -69 84 -125 155 -56 71 -109 138 -118 149 -71 87
-393 590 -389 606 1 4 -5 15 -14 25 -9 11 -27 39 -40 64 -13 25 -28 48 -34 52
-5 4 -7 8 -2 8 4 0 -3 17 -16 38 -13 20 -62 114 -108 207 -46 94 -88 173 -92
176 -5 3 -8 9 -8 13 1 7 -14 44 -47 116 -44 96 -99 230 -167 410 -32 85 -104
305 -134 415 -17 61 -36 128 -43 150 -6 22 -12 47 -13 55 -2 8 -8 38 -15 65
-15 65 -18 76 -36 165 -19 95 -21 107 -28 150 -3 19 -8 46 -10 60 -17 89 -40
267 -52 400 -3 30 -7 71 -9 90 -20 174 -27 844 -11 1085 14 215 22 310 31 385
13 109 18 147 21 165 2 11 9 47 15 80 6 32 17 72 25 88 14 26 19 28 58 23 56
-8 138 -30 276 -73 63 -20 120 -38 125 -39 6 -1 73 -18 150 -37 77 -19 156
-37 175 -41 19 -3 46 -8 60 -11 13 -3 42 -7 65 -10 22 -3 47 -8 55 -10 13 -3
54 -8 170 -21 246 -28 644 -32 870 -9 36 3 83 8 105 10 22 2 60 6 85 9 25 4
63 9 85 12 22 3 99 17 170 30 163 31 176 34 197 40 9 3 25 7 35 9 169 39 400
115 610 200 87 35 164 64 172 65 7 0 79 -27 160 -59z"/>
<path d="M4060 7386 c-52 -18 -113 -41 -135 -50 -22 -9 -42 -17 -45 -17 -5 1
-91 -25 -203 -60 -32 -10 -62 -18 -65 -17 -4 1 -14 -1 -22 -5 -31 -12 -88 -28
-116 -32 -16 -3 -56 -11 -89 -19 -33 -8 -76 -17 -95 -20 -19 -3 -46 -8 -60
-10 -14 -3 -47 -8 -75 -11 -27 -3 -61 -8 -75 -10 -14 -2 -56 -6 -95 -10 -38
-4 -86 -8 -105 -10 -254 -26 -844 -26 -1055 0 -16 2 -52 6 -79 10 -27 3 -92
13 -145 21 -53 9 -105 18 -116 19 -11 2 -48 8 -83 14 -182 34 -267 13 -303
-74 -12 -29 -14 -36 -23 -87 -3 -13 -5 -23 -6 -23 -14 0 -19 -528 -7 -715 14
-201 15 -214 21 -270 3 -30 8 -82 11 -115 3 -33 8 -78 11 -100 4 -22 8 -53 9
-70 7 -69 15 -132 20 -155 3 -14 7 -43 11 -65 12 -88 14 -101 19 -135 3 -19
10 -55 16 -80 10 -49 16 -79 25 -125 2 -16 9 -46 14 -65 5 -19 11 -44 13 -55
2 -11 7 -27 10 -35 4 -12 20 -73 41 -160 9 -36 104 -327 116 -355 4 -11 27
-69 51 -130 167 -434 385 -854 651 -1252 51 -76 95 -142 97 -148 2 -5 7 -12
11 -15 3 -3 37 -48 75 -100 38 -52 72 -97 75 -100 3 -3 18 -23 34 -45 16 -22
35 -47 43 -55 7 -8 36 -44 65 -80 29 -36 62 -76 75 -90 12 -14 31 -36 43 -50
90 -105 185 -206 315 -335 158 -158 257 -249 409 -376 16 -13 34 -30 42 -36 7
-7 17 -13 22 -13 6 0 12 -4 14 -9 2 -8 53 -48 273 -217 11 -9 58 -42 105 -75
47 -33 93 -66 103 -74 9 -8 19 -15 22 -15 2 0 35 -20 72 -44 104 -67 191 -108
228 -108 58 0 224 98 445 261 133 99 349 271 425 339 11 10 56 49 100 87 210
180 561 537 714 725 11 14 26 32 34 40 7 8 33 40 58 70 24 30 46 57 49 60 3 3
18 23 35 45 16 22 33 45 37 50 5 6 25 33 46 60 20 28 40 52 45 53 4 2 7 9 7
15 0 6 8 20 19 31 15 18 138 197 178 261 7 11 33 54 59 95 26 41 58 95 72 120
13 25 31 52 38 61 8 8 14 23 14 32 0 9 4 17 8 17 8 0 197 370 240 470 88 202
144 346 207 530 40 118 100 311 110 355 2 11 11 44 19 73 8 29 15 55 15 57 1
3 1 6 2 8 0 1 2 13 5 26 2 13 13 58 23 100 11 42 22 92 26 111 3 19 7 44 9 55
2 11 6 31 10 45 3 14 8 41 10 60 3 19 9 60 15 90 5 30 12 75 16 100 3 25 12
95 20 156 18 134 28 245 40 474 10 185 4 698 -9 770 -15 82 -48 130 -107 153
-35 14 -100 15 -179 3 -84 -13 -155 -25 -179 -30 -14 -3 -47 -8 -74 -11 -28
-3 -53 -8 -57 -10 -3 -2 -35 -6 -70 -10 -34 -3 -66 -7 -69 -9 -32 -19 -724
-29 -921 -13 -139 12 -402 44 -500 61 -14 3 -41 7 -60 10 -37 6 -121 22 -210
41 -83 18 -81 17 -165 40 -33 9 -64 18 -70 19 -5 1 -41 12 -80 24 -38 12 -73
21 -78 21 -4 1 -20 7 -35 15 -15 7 -70 28 -122 46 -136 47 -207 48 -330 6z
m345 -383 c66 -19 127 -36 135 -38 8 -2 29 -8 45 -15 17 -6 32 -12 35 -12 3 0
10 -2 15 -4 6 -1 55 -14 111 -28 89 -23 139 -34 224 -51 14 -3 36 -8 50 -11
14 -4 34 -8 45 -10 11 -1 45 -7 75 -13 84 -16 112 -21 150 -27 19 -2 46 -7 60
-9 14 -3 48 -7 75 -10 61 -7 113 -14 145 -20 68 -13 199 -19 440 -19 301 -1
450 7 750 40 68 7 186 31 200 39 18 11 44 -26 49 -71 8 -58 6 -426 -3 -534 -3
-41 -8 -104 -11 -140 -6 -80 -15 -177 -20 -210 -2 -14 -6 -45 -10 -70 -5 -46
-13 -100 -21 -145 -2 -14 -6 -37 -8 -52 -3 -16 -8 -44 -12 -63 -4 -19 -8 -42
-10 -50 -2 -8 -6 -31 -10 -50 -4 -19 -8 -42 -9 -50 -1 -8 -8 -37 -15 -65 -17
-74 -21 -88 -26 -115 -3 -14 -12 -50 -20 -80 -9 -30 -17 -62 -19 -71 -15 -77
-129 -422 -198 -599 -86 -223 -259 -588 -354 -750 -14 -25 -40 -70 -56 -100
-17 -30 -34 -58 -40 -61 -5 -3 -8 -9 -8 -13 1 -10 -198 -322 -230 -359 -5 -7
-29 -39 -52 -72 -50 -73 -215 -287 -254 -332 -15 -17 -42 -48 -59 -70 -18 -21
-48 -55 -68 -76 -20 -21 -36 -40 -36 -42 0 -15 -365 -377 -505 -500 -51 -45
-123 -105 -165 -140 -25 -20 -54 -44 -65 -53 -64 -52 -112 -90 -126 -98 -9 -5
-32 -21 -50 -36 -103 -81 -223 -164 -277 -192 -56 -29 -82 -26 -147 18 -33 22
-62 42 -65 46 -3 3 -34 26 -70 52 -36 25 -94 69 -130 97 -36 29 -72 57 -80 64
-30 24 -195 161 -200 167 -3 3 -36 32 -75 65 -86 73 -481 467 -555 554 -30 35
-59 69 -65 75 -5 6 -35 40 -65 76 -30 36 -57 67 -60 70 -3 3 -23 29 -45 58
-21 28 -43 52 -47 52 -4 0 -8 4 -8 10 0 5 -36 58 -81 117 -101 135 -269 389
-346 523 -20 36 -39 67 -42 70 -3 3 -15 23 -26 45 -11 22 -22 42 -26 45 -7 6
-229 455 -229 464 0 3 -9 28 -21 54 -36 80 -38 85 -59 142 -11 30 -25 65 -30
78 -26 60 -31 72 -47 127 -4 16 -52 150 -54 150 0 0 -2 7 -4 15 -1 8 -13 49
-26 90 -12 41 -24 80 -25 85 -2 6 -10 35 -19 65 -9 30 -17 64 -19 75 -2 11 -6
27 -10 35 -3 8 -8 26 -11 40 -2 14 -9 45 -15 70 -5 25 -12 55 -14 68 -3 13 -7
31 -10 40 -3 9 -8 35 -12 57 -3 22 -7 45 -9 50 -10 47 -24 130 -40 245 -2 14
-6 39 -9 55 -6 38 -15 115 -22 180 -4 49 -7 80 -20 275 -7 106 -9 413 -4 503
2 31 9 66 17 76 12 18 17 18 65 6 29 -8 67 -16 83 -19 17 -2 30 -5 30 -6 0 -2
134 -17 225 -25 307 -24 827 -24 990 0 19 3 55 8 80 11 66 7 111 12 150 19 19
4 100 17 179 31 79 14 187 34 240 45 53 11 109 22 125 25 16 3 32 7 36 9 4 2
22 7 41 10 98 17 356 91 377 108 24 19 107 35 162 30 30 -3 108 -20 175 -40z"/>
<path d="M3042 5428 c16 -41 100 -307 103 -327 2 -9 4 -17 5 -18 2 -2 3 -6 5
-10 1 -5 4 -15 7 -23 3 -8 15 -44 26 -80 11 -36 41 -132 67 -214 26 -82 48
-154 50 -160 1 -6 5 -18 8 -26 9 -24 39 -120 41 -133 1 -7 26 -86 55 -177 29
-91 61 -194 72 -230 12 -36 23 -72 26 -80 4 -8 7 -17 8 -20 1 -3 7 -24 15 -47
l13 -43 118 0 117 0 12 36 c7 19 13 41 14 47 2 7 6 19 9 27 3 8 17 51 30 95
14 44 46 148 72 230 26 83 69 222 97 310 27 88 64 207 83 265 53 165 99 315
98 320 -1 3 3 13 9 23 5 10 11 26 13 35 3 17 52 173 62 199 4 11 -23 13 -148
11 l-152 -3 -22 -67 c-12 -38 -20 -68 -17 -68 2 0 -1 -7 -8 -15 -7 -8 -10 -15
-7 -15 3 0 -5 -30 -19 -67 -13 -38 -24 -70 -24 -73 0 -6 -59 -200 -67 -220 -3
-8 -7 -20 -8 -25 -2 -6 -20 -64 -41 -130 -21 -66 -39 -124 -40 -130 -1 -5 -13
-46 -28 -90 -14 -44 -26 -86 -26 -94 0 -31 -19 6 -40 79 -12 41 -33 107 -46
145 -14 39 -25 70 -24 70 1 0 -1 7 -4 15 -2 8 -11 38 -19 65 -8 28 -40 131
-72 230 -31 99 -58 185 -59 190 -2 6 -6 17 -9 25 -3 8 -17 51 -30 95 l-24 80
-153 3 c-120 2 -151 0 -148 -10z"/>
<path d="M4629 5372 c-6 -15 -12 -34 -14 -42 -2 -8 -19 -62 -38 -120 -19 -58
-55 -168 -80 -245 -110 -340 -251 -778 -279 -865 -17 -52 -34 -104 -38 -115
-27 -67 -56 -176 -49 -181 5 -3 42 -5 82 -4 39 1 75 1 80 0 4 -1 37 -1 74 -2
49 0 67 3 69 13 2 13 75 242 144 449 46 138 102 314 104 325 1 6 17 55 35 110
33 97 51 135 51 104 0 -8 21 -78 46 -154 25 -77 47 -144 48 -150 4 -20 179
-555 212 -651 l15 -42 59 -1 c32 0 62 -1 67 -2 4 -1 47 -1 95 0 91 1 90 0 72
46 -4 11 -8 25 -9 31 -2 6 -30 93 -63 195 -33 101 -79 245 -102 319 -23 74
-46 144 -50 155 -5 11 -23 65 -40 120 -17 55 -35 109 -39 120 -8 20 -83 253
-87 268 -1 4 -2 8 -4 10 -1 1 -3 9 -5 17 -2 8 -24 78 -50 155 -26 77 -47 146
-48 152 0 10 -33 13 -124 12 l-124 0 -10 -27z"/>
</g>
</svg>
